<svg width="188" height="29" viewBox="0 0 188 29" fill="none" xmlns="http://www.w3.org/2000/svg">
<path d="M12.0717 14.184C15.2037 13.644 17.9037 11.808 17.9037 8.1C17.9037 3.564 13.8357 1.8 10.3437 1.8H0.227734V1.98C2.27973 1.98 2.45973 3.312 2.49573 5.94V22.86C2.45973 25.488 2.27973 26.82 0.227734 26.82V27H11.7117C15.6357 27 19.6677 25.164 19.6677 20.628C19.6677 16.092 15.5637 14.184 12.0717 14.184ZM9.47973 1.98C11.5677 1.98 14.4477 3.564 14.4477 8.1C14.4477 12.636 12.1797 14.184 9.47973 14.184C8.54374 14.184 6.95974 14.184 5.62773 14.184V5.94C5.62773 3.312 5.84373 1.98 7.89573 1.98H9.47973ZM10.9557 26.82C10.1637 26.82 8.97573 26.82 7.89573 26.82C5.84373 26.82 5.62773 25.488 5.62773 22.86V14.364C6.02373 14.364 10.9557 14.364 10.9557 14.364C13.0437 14.364 16.1757 16.092 16.1757 20.628C16.1757 25.164 13.2237 26.82 10.9557 26.82ZM22.9269 18.756C22.9269 18.684 22.9269 18.828 22.9269 18.756V18.756ZM39.8469 15.012C39.1629 10.908 35.9229 8.568 31.6749 8.892C26.6709 9.252 22.5669 13.176 22.9269 18.756C23.3589 24.696 28.2909 27.648 33.3669 27.324C36.1029 27.144 37.7229 26.172 39.0189 25.056V24.66C37.6509 25.992 35.6709 27.144 33.3669 27.18C29.5149 27.288 26.5989 24.012 26.1309 18.648C26.0229 17.388 26.0949 16.128 26.2749 15.012H39.8469ZM31.6749 9.036C35.3469 9.108 36.4989 11.916 36.7869 14.868H26.3109C26.9589 11.484 28.9029 9 31.6749 9.036ZM46.1474 12.348C46.1474 10.62 47.3354 9.036 49.6034 9.036C51.5834 9.036 52.2674 9.576 52.9154 10.26C53.7794 11.232 52.7354 11.952 52.6634 12.996C52.5554 13.968 53.5634 14.688 54.4994 14.328C55.3994 13.932 55.6154 12.6 54.8234 11.412C54.1394 10.404 52.8074 8.892 49.6034 8.892C45.9314 8.892 43.5914 10.368 43.5914 13.14C43.5914 19.332 53.0954 19.512 53.0954 23.868C53.0954 25.668 51.5114 27.18 49.1714 27.18C46.9034 27.18 45.7514 26.496 45.0674 25.704C44.1314 24.66 45.3194 23.904 45.3914 22.86C45.4994 21.888 44.4914 21.168 43.5554 21.528C42.6554 21.888 42.4394 23.256 43.2314 24.444C43.9154 25.452 45.8594 27.324 49.1714 27.324C53.4194 27.324 55.7954 25.632 55.7954 22.572C55.7954 17.316 46.1474 16.704 46.1474 12.348ZM66.5279 27.108C64.1879 27.108 63.6479 24.84 63.6479 22.392V9.396H67.3919V9.216H63.6479V5.22H63.4679C63.0359 7.236 62.0999 7.74 60.6959 7.92C60.6959 8.1 60.6959 9.216 60.6959 9.216C60.6959 9.216 59.6159 9.216 59.0399 9.216V9.396H60.6959C60.6959 12.492 60.6959 22.212 60.6959 22.212C60.6959 26.496 63.5759 27.36 65.9879 27.36C66.8879 27.36 67.4999 27.18 67.9319 26.928V26.712C67.7519 26.82 67.1399 27.108 66.5279 27.108ZM81.5883 6.516C81.5883 3.024 84.0723 1.62 86.4123 1.62C90.6603 1.62 93.5403 5.184 93.5403 9.576H93.7203V0.503998H93.5403C93.5403 2.484 92.8563 2.844 91.5603 2.484C89.9763 2.088 88.3203 1.44 86.3043 1.44C82.4883 1.44 78.8163 3.456 78.8163 7.74C78.8163 15.336 91.9923 15.768 91.9923 22.14C91.9923 25.092 89.7603 27.18 86.4843 27.18C80.7963 27.18 78.3843 21.348 78.3843 19.26H78.2043V28.332H78.3843C78.3843 25.884 80.2923 26.388 81.4083 26.676C82.5603 26.928 84.5403 27.36 86.4843 27.36C91.3803 27.36 95.0163 25.164 95.0163 20.736C95.0163 13.392 81.5883 12.6 81.5883 6.516ZM98.1261 18.756C98.1261 18.684 98.1261 18.828 98.1261 18.756V18.756ZM115.046 15.012C114.362 10.908 111.122 8.568 106.874 8.892C101.87 9.252 97.7661 13.176 98.1261 18.756C98.5581 24.696 103.49 27.648 108.566 27.324C111.302 27.144 112.922 26.172 114.218 25.056V24.66C112.85 25.992 110.87 27.144 108.566 27.18C104.714 27.288 101.798 24.012 101.33 18.648C101.222 17.388 101.294 16.128 101.474 15.012H115.046ZM106.874 9.036C110.546 9.108 111.698 11.916 111.986 14.868H101.51C102.158 11.484 104.102 9 106.874 9.036ZM123.011 22.86V6.084C123.011 2.484 123.263 0.864 123.623 0.684V0.503998H117.755V0.684C119.807 0.684 120.023 1.98 120.023 4.608V22.86C120.023 25.488 119.807 26.82 117.755 26.82V27H125.279V26.82C123.227 26.82 123.011 25.488 123.011 22.86ZM134.12 22.86V6.084C134.12 2.484 134.372 0.864 134.732 0.684V0.503998H128.864V0.684C130.916 0.684 131.132 1.98 131.132 4.608V22.86C131.132 25.488 130.916 26.82 128.864 26.82V27H136.388V26.82C134.336 26.82 134.12 25.488 134.12 22.86ZM139.47 18.756C139.47 18.684 139.47 18.828 139.47 18.756V18.756ZM156.39 15.012C155.706 10.908 152.466 8.568 148.218 8.892C143.214 9.252 139.11 13.176 139.47 18.756C139.902 24.696 144.834 27.648 149.91 27.324C152.646 27.144 154.266 26.172 155.562 25.056V24.66C154.194 25.992 152.214 27.144 149.91 27.18C146.058 27.288 143.142 24.012 142.674 18.648C142.566 17.388 142.638 16.128 142.818 15.012H156.39ZM148.218 9.036C151.89 9.108 153.042 11.916 153.33 14.868H142.854C143.502 11.484 145.446 9 148.218 9.036ZM169.782 8.892C168.414 9.036 165.57 11.088 164.67 14.364C164.706 11.052 164.958 9.576 165.282 9.396V9.216H159.45V9.396C161.502 9.396 161.718 10.692 161.718 13.356V22.86C161.718 25.488 161.502 26.82 159.45 26.82V27H166.938V26.82C164.886 26.82 164.706 25.488 164.67 22.86L164.706 14.76C165.21 12.78 166.686 10.656 167.946 10.296C169.278 9.9 169.278 11.052 170.178 11.628C171.006 12.168 172.266 11.772 172.302 10.548C172.338 9.396 171.222 8.712 169.782 8.892ZM178.3 12.348C178.3 10.62 179.488 9.036 181.756 9.036C183.736 9.036 184.42 9.576 185.068 10.26C185.932 11.232 184.888 11.952 184.816 12.996C184.708 13.968 185.716 14.688 186.652 14.328C187.552 13.932 187.768 12.6 186.976 11.412C186.292 10.404 184.96 8.892 181.756 8.892C178.084 8.892 175.744 10.368 175.744 13.14C175.744 19.332 185.248 19.512 185.248 23.868C185.248 25.668 183.664 27.18 181.324 27.18C179.056 27.18 177.904 26.496 177.22 25.704C176.284 24.66 177.472 23.904 177.544 22.86C177.652 21.888 176.644 21.168 175.708 21.528C174.808 21.888 174.592 23.256 175.384 24.444C176.068 25.452 178.012 27.324 181.324 27.324C185.572 27.324 187.948 25.632 187.948 22.572C187.948 17.316 178.3 16.704 178.3 12.348Z" fill="#780202"/>
</svg>
