<svg width="760" height="62" viewBox="0 0 760 62" fill="none" xmlns="http://www.w3.org/2000/svg">
<path d="M26.992 48.128C16.944 48.384 8.432 39.616 7.344 27.2C6.256 14.72 13.232 3.968 22.96 3.072C26.16 2.816 29.616 3.584 32.752 5.248C36.592 7.488 40.496 12.864 40.496 17.024H40.816V0.895996H40.496C40.496 5.248 39.088 5.056 35.824 4.288C32.112 3.392 26.992 2.432 22.96 2.752C9.712 3.968 -0.272 13.76 1.008 27.776C2.224 41.728 13.744 49.28 27.056 48.448C34.16 48 38.128 45.696 41.584 42.944V41.984C38 45.248 33.072 48 26.992 48.128ZM66.3805 15.808C63.9485 16.064 58.8925 19.712 57.2925 25.536C57.3565 19.648 57.8045 17.024 58.3805 16.704V16.384H48.0125V16.704C51.6605 16.704 52.0445 19.008 52.0445 23.744V40.64C52.0445 45.312 51.6605 47.68 48.0125 47.68V48H61.3245V47.68C57.6765 47.68 57.3565 45.312 57.2925 40.64L57.3565 26.24C58.2525 22.72 60.8765 18.944 63.1165 18.304C65.4845 17.6 65.4845 19.648 67.0845 20.672C68.5565 21.632 70.7965 20.928 70.8605 18.752C70.9245 16.704 68.9405 15.488 66.3805 15.808ZM74.2415 33.344C74.2415 33.216 74.2415 33.472 74.2415 33.344V33.344ZM104.322 26.688C103.106 19.392 97.3455 15.232 89.7935 15.808C80.8975 16.448 73.6015 23.424 74.2415 33.344C75.0095 43.904 83.7775 49.152 92.8015 48.576C97.6655 48.256 100.546 46.528 102.85 44.544V43.84C100.418 46.208 96.8975 48.256 92.8015 48.32C85.9535 48.512 80.7695 42.688 79.9375 33.152C79.7455 30.912 79.8735 28.672 80.1935 26.688H104.322ZM89.7935 16.064C96.3215 16.192 98.3695 21.184 98.8815 26.432H80.2575C81.4095 20.416 84.8655 16 89.7935 16.064ZM135.235 48.128C132.291 48.128 132.099 45.632 132.099 41.344C132.099 41.344 132.099 31.552 132.099 25.216C132.099 18.816 127.619 15.808 121.603 15.808C114.755 15.808 112.451 19.584 111.363 21.952C110.275 24.256 111.043 26.56 112.771 26.944C114.562 27.392 116.099 25.792 115.651 24.128C115.203 22.272 113.347 21.504 114.307 19.456C115.267 17.28 117.251 16.064 121.411 16.064C126.083 16.064 126.851 20.096 126.851 25.536C126.851 27.136 126.851 29.184 126.851 31.232C125.891 31.808 124.803 32.32 123.458 32.768C119.043 34.24 109.955 35.136 109.507 41.92C109.059 48.32 115.843 49.536 120.643 48.064C123.458 47.168 125.443 45.12 126.915 42.496C127.427 47.68 130.755 48.576 134.403 48.576C135.683 48.576 136.579 48.32 137.411 47.808V47.488C137.027 47.744 136.003 48.128 135.235 48.128ZM121.731 47.36C117.763 49.28 113.219 47.232 113.923 40.448C114.562 34.688 120.643 34.112 123.715 32.96C125.059 32.448 126.019 32 126.851 31.488C126.851 36.224 126.851 41.024 126.851 41.024C126.851 41.408 126.851 41.792 126.915 42.176C125.699 44.352 124.035 46.272 121.731 47.36ZM154.88 48.192C150.72 48.192 149.76 44.16 149.76 39.808V16.704H156.416V16.384H149.76V9.28H149.44C148.672 12.864 147.008 13.76 144.512 14.08C144.512 14.4 144.512 16.384 144.512 16.384C144.512 16.384 142.592 16.384 141.568 16.384V16.704H144.512C144.512 22.208 144.512 39.488 144.512 39.488C144.512 47.104 149.632 48.64 153.92 48.64C155.52 48.64 156.608 48.32 157.376 47.872V47.488C157.056 47.68 155.968 48.192 154.88 48.192ZM161.304 33.344C161.304 33.216 161.304 33.472 161.304 33.344V33.344ZM191.384 26.688C190.168 19.392 184.408 15.232 176.856 15.808C167.96 16.448 160.664 23.424 161.304 33.344C162.072 43.904 170.84 49.152 179.864 48.576C184.728 48.256 187.608 46.528 189.912 44.544V43.84C187.48 46.208 183.96 48.256 179.864 48.32C173.016 48.512 167.832 42.688 167 33.152C166.808 30.912 166.936 28.672 167.256 26.688H191.384ZM176.856 16.064C183.384 16.192 185.432 21.184 185.944 26.432H167.32C168.472 20.416 171.928 16 176.856 16.064ZM231.703 16.384V16.704C234.775 16.704 235.095 22.016 233.879 25.28C233.559 26.176 230.487 34.624 227.799 42.176C226.967 40.256 219.799 24.064 218.583 20.992C217.239 17.792 217.367 16.704 219.607 16.704V16.384H208.663V16.704C211.479 16.704 212.631 19.904 213.911 22.72C215.319 25.856 225.431 48 225.431 48H225.687C223.703 53.248 220.695 58.368 218.711 59.968C215.831 62.144 216.087 57.92 214.551 56.832C213.079 55.872 211.031 56.64 210.967 58.56C210.839 60.672 212.695 62.016 214.935 61.888C219.031 61.632 222.551 56.384 226.007 48C226.711 46.272 227.351 44.288 228.055 42.304C230.807 34.56 233.815 26.112 234.775 23.68C236.311 19.712 238.423 17.216 241.303 16.704V16.384H231.703ZM258.801 15.808C249.265 16.448 242.609 23.936 243.185 33.728C243.761 43.648 252.401 49.472 261.681 48.576C270.769 47.744 276.401 39.68 276.081 30.784C275.761 21.12 267.825 15.168 258.801 15.808ZM261.681 48.32C254.705 49.216 249.521 43.392 248.753 33.344C248.049 23.552 251.825 16.64 258.801 16.064C265.393 15.552 269.937 23.104 270.449 31.04C271.025 39.616 267.633 47.488 261.681 48.32ZM309.828 40.64V26.304C309.828 19.904 310.276 17.024 310.916 16.704V16.384H300.548V16.704C304.196 16.704 304.516 19.008 304.58 23.744V38.08C304.58 39.552 304.516 40.896 304.516 41.984C303.044 45.888 299.076 48.192 296.324 48.192C290.116 48.192 289.412 43.072 289.412 38.72V26.304C289.412 19.904 289.86 17.024 290.436 16.704V16.384H280.068V16.704C283.716 16.704 284.1 19.008 284.1 23.744V38.4C284.1 46.016 288.772 48.64 295.108 48.64C299.652 48.64 302.852 45.952 304.452 42.816C304.26 45.952 303.94 47.488 303.492 47.68V48H313.86V47.68C310.212 47.68 309.892 45.376 309.828 40.704V40.64ZM338.631 15.808C336.199 16.064 331.143 19.712 329.543 25.536C329.607 19.648 330.055 17.024 330.631 16.704V16.384H320.263V16.704C323.911 16.704 324.295 19.008 324.295 23.744V40.64C324.295 45.312 323.911 47.68 320.263 47.68V48H333.575V47.68C329.927 47.68 329.607 45.312 329.543 40.64L329.607 26.24C330.503 22.72 333.127 18.944 335.367 18.304C337.735 17.6 337.735 19.648 339.335 20.672C340.807 21.632 343.047 20.928 343.111 18.752C343.175 16.704 341.191 15.488 338.631 15.808ZM379.099 48.32C372.251 48.384 366.939 42.368 366.555 33.152C366.171 23.936 369.499 16.576 376.091 16.064C379.803 15.808 383.451 17.216 384.731 19.136C386.139 21.184 384.347 21.824 383.899 23.616C383.451 25.344 384.987 26.88 386.715 26.496C388.443 26.112 389.211 23.808 388.123 21.504C387.099 19.136 382.427 15.104 376.091 15.808C367.195 16.704 360.731 22.592 361.179 33.28C361.627 44.096 370.139 49.152 379.163 48.576C383.067 48.32 386.011 46.4 387.995 44.864V44.096C386.267 45.952 382.427 48.32 379.099 48.32ZM409.051 15.808C399.515 16.448 392.859 23.936 393.435 33.728C394.011 43.648 402.651 49.472 411.931 48.576C421.019 47.744 426.651 39.68 426.331 30.784C426.011 21.12 418.075 15.168 409.051 15.808ZM411.931 48.32C404.955 49.216 399.771 43.392 399.003 33.344C398.299 23.552 402.075 16.64 409.051 16.064C415.643 15.552 420.187 23.104 420.699 31.04C421.275 39.616 417.883 47.488 411.931 48.32ZM480.848 40.64V25.984C480.848 18.368 476.496 15.744 470.16 15.744C465.552 15.744 462.16 18.944 460.56 22.208C459.28 17.472 455.504 15.744 450.32 15.744C445.776 15.744 442.896 18.432 441.296 21.568C441.424 18.432 441.808 16.96 442.256 16.704V16.384H431.888V16.704C435.536 16.704 435.856 19.008 435.92 23.68V40.64C435.856 45.312 435.536 47.68 431.888 47.68V48H445.2V47.68C441.552 47.68 441.168 45.312 441.168 40.64V26.304C441.168 24.768 441.168 23.488 441.232 22.4C442.704 18.432 446.352 16.192 449.104 16.192C455.312 16.192 455.76 21.312 455.76 25.664V40.64C455.696 45.312 455.376 47.68 451.728 47.68V48H465.04V47.68C461.392 47.68 461.007 45.312 461.007 40.64V25.984C461.007 24.768 460.88 23.616 460.688 22.656C462.224 18.816 466.256 16.192 468.944 16.192C475.152 16.192 475.6 21.312 475.6 25.664V40.64C475.536 45.312 475.216 47.68 471.568 47.68V48H484.88V47.68C481.232 47.68 480.848 45.312 480.848 40.64ZM509.567 1.664C509.055 1.408 507.263 0.703999 504.767 0.703999C500.415 0.703999 495.295 2.24 495.295 9.856C495.295 9.856 495.295 12.608 495.295 16.384H491.263V16.704H495.295C495.295 18.112 495.295 19.456 495.295 40.64C495.295 45.312 494.911 47.68 491.263 47.68V48H504.639V47.68C500.991 47.68 500.607 45.312 500.607 40.64V16.704H505.535V16.384H500.607V9.536C500.607 5.184 501.503 1.024 505.727 1.024C508.159 1.024 506.878 4.16 507.711 5.824C508.479 7.36 510.783 7.68 511.743 6.144C512.575 4.736 512.063 2.688 509.567 1.664ZM527.114 15.808C517.578 16.448 510.922 23.936 511.498 33.728C512.074 43.648 520.714 49.472 529.994 48.576C539.082 47.744 544.714 39.68 544.394 30.784C544.074 21.12 536.138 15.168 527.114 15.808ZM529.994 48.32C523.018 49.216 517.834 43.392 517.066 33.344C516.362 23.552 520.138 16.64 527.114 16.064C533.706 15.552 538.25 23.104 538.762 31.04C539.338 39.616 535.946 47.488 529.994 48.32ZM567.693 15.808C565.261 16.064 560.205 19.712 558.605 25.536C558.669 19.648 559.117 17.024 559.693 16.704V16.384H549.325V16.704C552.973 16.704 553.357 19.008 553.357 23.744V40.64C553.357 45.312 552.973 47.68 549.325 47.68V48H562.637V47.68C558.989 47.68 558.669 45.312 558.605 40.64L558.669 26.24C559.565 22.72 562.189 18.944 564.429 18.304C566.797 17.6 566.797 19.648 568.397 20.672C569.869 21.632 572.109 20.928 572.173 18.752C572.237 16.704 570.253 15.488 567.693 15.808ZM590.692 48.192C586.532 48.192 585.572 44.16 585.572 39.808V16.704H592.228V16.384H585.572V9.28H585.252C584.484 12.864 582.82 13.76 580.324 14.08C580.324 14.4 580.324 16.384 580.324 16.384C580.324 16.384 578.404 16.384 577.38 16.384V16.704H580.324C580.324 22.208 580.324 39.488 580.324 39.488C580.324 47.104 585.444 48.64 589.732 48.64C591.332 48.64 592.42 48.32 593.188 47.872V47.488C592.868 47.68 591.78 48.192 590.692 48.192ZM635.706 16.384H614.074L612.282 23.104H612.474C613.754 20.16 616.634 16.704 621.178 16.704H630.202L611.13 47.68V48H633.082L634.938 41.28H634.682C633.402 44.288 630.522 47.68 625.978 47.68H616.634L635.706 16.704V16.384ZM656.426 15.808C646.89 16.448 640.234 23.936 640.81 33.728C641.386 43.648 650.026 49.472 659.306 48.576C668.394 47.744 674.026 39.68 673.706 30.784C673.386 21.12 665.45 15.168 656.426 15.808ZM659.306 48.32C652.33 49.216 647.146 43.392 646.378 33.344C645.674 23.552 649.45 16.64 656.426 16.064C663.018 15.552 667.562 23.104 668.074 31.04C668.65 39.616 665.258 47.488 659.306 48.32ZM708.398 40.64V25.984C708.398 18.432 703.79 15.744 697.454 15.744C692.91 15.744 689.71 18.432 688.046 21.632C688.238 18.432 688.622 16.896 689.07 16.704V16.384H678.638V16.704C682.286 16.704 682.67 19.008 682.67 23.744V40.64C682.67 45.312 682.286 47.68 678.638 47.68V48H692.014V47.68C688.366 47.68 687.982 45.312 687.982 40.64V26.304C687.982 24.832 687.982 23.552 688.046 22.4C689.518 18.496 693.486 16.192 696.174 16.192C702.382 16.192 703.15 21.376 703.15 25.664V40.64C703.15 45.312 702.766 47.68 699.118 47.68V48H712.43V47.68C708.782 47.68 708.462 45.376 708.398 40.64ZM717.304 33.344C717.304 33.216 717.304 33.472 717.304 33.344V33.344ZM747.384 26.688C746.168 19.392 740.408 15.232 732.856 15.808C723.96 16.448 716.664 23.424 717.304 33.344C718.072 43.904 726.84 49.152 735.864 48.576C740.728 48.256 743.608 46.528 745.912 44.544V43.84C743.48 46.208 739.96 48.256 735.864 48.32C729.016 48.512 723.832 42.688 723 33.152C722.808 30.912 722.936 28.672 723.256 26.688H747.384ZM732.856 16.064C739.384 16.192 741.432 21.184 741.944 26.432H723.32C724.472 20.416 727.928 16 732.856 16.064ZM755.897 42.368C754.169 42.368 752.825 43.776 752.825 45.504C752.825 47.232 754.169 48.576 755.897 48.576C757.625 48.576 759.033 47.232 759.033 45.504C759.033 43.776 757.625 42.368 755.897 42.368Z" fill="#780202"/>
</svg>
