<svg width="164" height="34" viewBox="0 0 164 34" fill="none" xmlns="http://www.w3.org/2000/svg">
<path d="M7.07081 5.8994C7.11795 2.45415 7.35364 0.707927 10.0405 0.707927V0.471951H0V0.707927C2.68691 0.707927 2.96974 2.45415 2.96974 5.8994V28.0811C2.96974 31.5264 2.68691 33.2726 0 33.2726V33.5086H10.0405V33.2726C7.35364 33.2726 7.11795 31.5264 7.07081 28.0811V5.8994Z" fill="black"/>
<path d="M36.6964 28.0811V17.2734C36.6964 11.7044 33.3024 9.72221 28.6357 9.72221C25.2888 9.72221 22.9319 11.7044 21.7063 14.0642C21.8477 11.7044 22.1305 10.5717 22.4605 10.4301V10.1942H14.7769V10.4301C17.4638 10.4301 17.7466 12.1292 17.7466 15.6216V28.0811C17.7466 31.5264 17.4638 33.2726 14.7769 33.2726V33.5086H24.6289V33.2726C21.942 33.2726 21.6591 31.5264 21.6591 28.0811V17.5094C21.6591 16.4239 21.6591 15.48 21.7063 14.6305C22.7905 11.7516 25.7131 10.0526 27.6929 10.0526C32.2653 10.0526 32.831 13.8754 32.831 17.0375V28.0811C32.831 31.5264 32.5482 33.2726 29.8613 33.2726V33.5086H39.6661V33.2726C36.9792 33.2726 36.7435 31.5736 36.6964 28.0811Z" fill="black"/>
<path d="M53.4855 33.6502C50.4215 33.6502 49.7144 30.6769 49.7144 27.4676V10.4301H54.6168V10.1942H49.7144V4.9555H49.4787C48.913 7.59843 47.6874 8.25916 45.849 8.49513C45.849 8.73111 45.849 10.1942 45.849 10.1942C45.849 10.1942 44.4349 10.1942 43.6806 10.1942V10.4301H45.849C45.849 14.4889 45.849 27.2316 45.849 27.2316C45.849 32.8479 49.6201 33.9805 52.7784 33.9805C53.9569 33.9805 54.7582 33.7446 55.3239 33.4142V33.131C55.0882 33.2726 54.2869 33.6502 53.4855 33.6502Z" fill="black"/>
<path d="M58.2174 22.7009C58.2174 22.6065 58.2174 22.7953 58.2174 22.7009V22.7009ZM80.3726 17.7926C79.477 12.4123 75.2345 9.34465 69.6721 9.7694C63.1198 10.2414 57.746 15.3856 58.2174 22.7009C58.7831 30.4881 65.2411 34.3581 71.8876 33.9333C75.4702 33.6974 77.5914 32.4231 79.2884 30.96V30.4409C77.4971 32.1871 74.9045 33.6974 71.8876 33.7446C66.8438 33.8862 63.0256 29.5914 62.4128 22.5593C62.2713 20.9075 62.3656 19.2556 62.6013 17.7926H80.3726ZM69.6721 9.95819C74.4803 10.0526 75.9887 13.7338 76.3658 17.6038H62.6484C63.4969 13.1675 66.0424 9.91099 69.6721 9.95819Z" fill="black"/>
<path d="M97.909 9.7694C96.1177 9.95819 92.3937 12.6483 91.2152 16.9431C91.2624 12.6011 91.5924 10.6661 92.0166 10.4301V10.1942H84.3801V10.4301C87.067 10.4301 87.3499 12.1292 87.3499 15.6216V28.0811C87.3499 31.5264 87.067 33.2726 84.3801 33.2726V33.5086H94.185V33.2726C91.4981 33.2726 91.2624 31.5264 91.2152 28.0811L91.2624 17.4622C91.9223 14.8665 93.855 12.082 95.5049 11.61C97.249 11.0909 97.249 12.6011 98.4275 13.3562C99.5117 14.0642 101.162 13.545 101.209 11.9404C101.256 10.4301 99.7945 9.53343 97.909 9.7694Z" fill="black"/>
<path d="M112.115 28.0811V17.5566C112.115 12.7899 112.445 10.6661 112.916 10.4301V10.1942H105.28V10.4301C107.966 10.4301 108.202 12.1292 108.249 15.5744V28.0811C108.202 31.5264 107.966 33.2726 105.28 33.2726V33.5086H115.084V33.2726C112.397 33.2726 112.115 31.5264 112.115 28.0811ZM110.182 5.23867C111.549 5.23867 112.68 4.10598 112.68 2.64293C112.68 1.17988 111.549 0 110.182 0C108.768 0 107.684 1.17988 107.684 2.64293C107.684 4.10598 108.768 5.23867 110.182 5.23867Z" fill="black"/>
<path d="M130.811 9.7694C123.787 10.2414 118.885 15.7632 119.309 22.9841C119.733 30.2993 126.097 34.5941 132.932 33.9333C139.626 33.3198 143.774 27.3732 143.538 20.8131C143.302 13.6866 137.457 9.29745 130.811 9.7694ZM132.932 33.7446C127.794 34.4053 123.976 30.1105 123.41 22.7009C122.891 15.48 125.673 10.3829 130.811 9.95819C135.666 9.58062 139.013 15.1497 139.39 21.0019C139.814 27.326 137.316 33.131 132.932 33.7446Z" fill="black"/>
<path d="M160.699 9.7694C158.908 9.95819 155.184 12.6483 154.005 16.9431C154.053 12.6011 154.383 10.6661 154.807 10.4301V10.1942H147.17V10.4301C149.857 10.4301 150.14 12.1292 150.14 15.6216V28.0811C150.14 31.5264 149.857 33.2726 147.17 33.2726V33.5086H156.975V33.2726C154.288 33.2726 154.053 31.5264 154.005 28.0811L154.053 17.4622C154.713 14.8665 156.645 12.082 158.295 11.61C160.039 11.0909 160.039 12.6011 161.218 13.3562C162.302 14.0642 163.952 13.545 163.999 11.9404C164.046 10.4301 162.585 9.53343 160.699 9.7694Z" fill="black"/>
</svg>
